<?xml version="1.0" encoding="UTF-8"?>
<svg xmlns="http://www.w3.org/2000/svg" xmlns:xlink="http://www.w3.org/1999/xlink" width="321.51pt" height="365pt" viewBox="0 0 321.51 365" version="1.1">
<defs>
<clipPath id="clip1">
  <path d="M 70 42 L 161.113281 42 L 161.113281 250 L 70 250 Z M 70 42 "/>
</clipPath>
</defs>
<g id="surface1">
<path style=" stroke:none;fill-rule:nonzero;fill:rgb(90.99884%,81.999207%,10.198975%);fill-opacity:1;" d="M 29.226563 327.929688 L 0 0 L 321.515625 0 L 292.285156 327.929688 L 160.398438 365 "/>
<path style=" stroke:none;fill-rule:nonzero;fill:rgb(96.499634%,87.5%,9.399414%);fill-opacity:1;" d="M 161.113281 26.378906 L 292.285156 26.378906 L 267.335938 307.257813 L 161.113281 336.484375 L 161.113281 26.378906 "/>
<path style=" stroke:none;fill-rule:nonzero;fill:rgb(0.799561%,0.799561%,0.799561%);fill-opacity:1;" d="M 170.875 297.945313 L 181.1875 291.707031 C 183.175781 295.234375 184.984375 298.21875 189.328125 298.21875 C 193.488281 298.21875 196.109375 296.589844 196.109375 290.261719 L 196.109375 247.207031 L 208.773438 247.207031 L 208.773438 290.4375 C 208.773438 303.554688 201.085938 309.523438 189.867188 309.523438 C 179.738281 309.523438 173.859375 304.277344 170.875 297.945313 "/>
<path style=" stroke:none;fill-rule:nonzero;fill:rgb(0.799561%,0.799561%,0.799561%);fill-opacity:1;" d="M 215.648438 296.589844 L 225.960938 290.621094 C 228.671875 295.054688 232.199219 298.308594 238.441406 298.308594 C 243.6875 298.308594 247.03125 295.6875 247.03125 292.066406 C 247.03125 287.726563 243.597656 286.1875 237.808594 283.65625 L 234.644531 282.300781 C 225.507813 278.410156 219.445313 273.527344 219.445313 263.21875 C 219.445313 253.722656 226.683594 246.484375 237.988281 246.484375 C 246.039063 246.484375 251.824219 249.289063 255.984375 256.613281 L 246.128906 262.945313 C 243.957031 259.058594 241.605469 257.519531 237.988281 257.519531 C 234.28125 257.519531 231.929688 259.871094 231.929688 262.945313 C 231.929688 266.742188 234.28125 268.28125 239.707031 270.632813 L 242.871094 271.988281 C 253.636719 276.601563 259.695313 281.304688 259.695313 291.886719 C 259.695313 303.285156 250.742188 309.523438 238.710938 309.523438 C 226.953125 309.523438 219.355469 303.917969 215.648438 296.589844 "/>
<path style=" stroke:none;fill-rule:nonzero;fill:rgb(27.49939%,28.599548%,24.699402%);fill-opacity:1;" d="M 161.113281 238.816406 L 166.460938 248.078125 L 246.71875 201.742188 C 250.027344 199.832031 252.0625 196.300781 252.0625 192.480469 L 252.0625 99.804688 C 252.0625 95.984375 250.027344 92.453125 246.71875 90.542969 L 166.460938 44.207031 C 163.152344 42.296875 159.074219 42.296875 155.765625 44.207031 L 75.507813 90.542969 C 72.199219 92.453125 70.164063 95.984375 70.164063 99.804688 L 70.164063 192.480469 C 70.164063 196.300781 72.199219 199.832031 75.507813 201.742188 L 155.765625 248.078125 C 159.074219 249.988281 163.152344 249.988281 166.460938 248.078125 L 161.113281 238.816406 L 166.460938 229.558594 L 91.550781 186.308594 L 91.550781 105.976563 L 161.113281 65.8125 L 230.675781 105.976563 L 230.675781 186.308594 L 155.765625 229.558594 L 161.113281 238.816406 L 166.460938 229.558594 L 161.113281 238.816406 "/>
<path style=" stroke:none;fill-rule:nonzero;fill:rgb(100%,100%,100%);fill-opacity:1;" d="M 161.113281 238.816406 L 166.460938 248.078125 L 246.71875 201.742188 C 250.027344 199.832031 252.0625 196.300781 252.0625 192.480469 L 252.0625 99.804688 C 252.0625 95.984375 250.027344 92.453125 246.71875 90.542969 L 166.460938 44.207031 C 163.152344 42.296875 159.074219 42.296875 155.765625 44.207031 L 75.507813 90.542969 C 72.199219 92.453125 70.164063 95.984375 70.164063 99.804688 L 70.164063 192.480469 C 70.164063 196.300781 72.199219 199.832031 75.507813 201.742188 L 155.765625 248.078125 C 159.074219 249.988281 163.152344 249.988281 166.460938 248.078125 L 161.113281 238.816406 L 166.460938 229.558594 L 91.550781 186.308594 L 91.550781 105.976563 L 161.113281 65.8125 L 230.675781 105.976563 L 230.675781 186.308594 L 155.765625 229.558594 L 161.113281 238.816406 L 166.460938 229.558594 L 161.113281 238.816406 "/>
<g clip-path="url(#clip1)" clip-rule="nonzero">
<path style=" stroke:none;fill-rule:nonzero;fill:rgb(92.199707%,92.199707%,92.199707%);fill-opacity:1;" d="M 161.113281 238.816406 L 166.460938 248.078125 L 246.71875 201.742188 C 250.027344 199.832031 252.0625 196.300781 252.0625 192.480469 L 252.0625 99.804688 C 252.0625 95.984375 250.027344 92.453125 246.71875 90.542969 L 166.460938 44.207031 C 163.152344 42.296875 159.074219 42.296875 155.765625 44.207031 L 75.507813 90.542969 C 72.199219 92.453125 70.164063 95.984375 70.164063 99.804688 L 70.164063 192.480469 C 70.164063 196.300781 72.199219 199.832031 75.507813 201.742188 L 155.765625 248.078125 C 159.074219 249.988281 163.152344 249.988281 166.460938 248.078125 L 161.113281 238.816406 L 166.460938 229.558594 L 91.550781 186.308594 L 91.550781 105.976563 L 161.113281 65.8125 L 230.675781 105.976563 L 230.675781 186.308594 L 155.765625 229.558594 L 161.113281 238.816406 L 166.460938 229.558594 L 161.113281 238.816406 "/>
</g>
</g>
</svg>
